<?xml version="1.0" standalone="no"?>
<!DOCTYPE svg PUBLIC "-//W3C//DTD SVG 20010904//EN"
 "http://www.w3.org/TR/2001/REC-SVG-20010904/DTD/svg10.dtd">
<svg version="1.0" xmlns="http://www.w3.org/2000/svg"
 width="512.000000pt" height="512.000000pt" viewBox="0 0 512.000000 512.000000"
 preserveAspectRatio="xMidYMid meet">
<metadata>
Created by potrace 1.11, written by Peter Selinger 2001-2013
</metadata>
<g transform="translate(0.000000,512.000000) scale(0.100000,-0.100000)"
fill="#000000" stroke="none">
<path d="M735 3652 c-3 -3 -5 -168 -5 -366 l0 -361 1087 1 c599 1 1093 2 1098
3 7 1 11 119 10 364 l0 362 -1092 1 c-601 1 -1095 -1 -1098 -4z"/>
<path d="M3659 3621 c0 -20 -1 -349 -2 -731 l-2 -695 -722 0 c-397 0 -726 -4
-730 -9 -4 -4 -8 -168 -8 -365 l0 -357 1097 -2 1098 -2 0 1099 0 1098 -365 0
-365 0 -1 -36z"/>
<path d="M734 2191 c-2 -2 -4 -167 -4 -366 l0 -362 365 0 c327 0 365 2 366 16
4 75 3 711 -1 712 -16 3 -722 3 -726 0z"/>
</g>
</svg>
